<svg xmlns="http://www.w3.org/2000/svg" version="1.1" xmlns:xlink="http://www.w3.org/1999/xlink" xmlns:svgjs="http://svgjs.dev/svgjs" width="2000" height="1247" viewBox="0 0 2000 1247"><g transform="matrix(1,0,0,1,-1.2121212121212466,0.504858299595071)"><svg viewBox="0 0 396 247" data-background-color="#ffffff" preserveAspectRatio="xMidYMid meet" height="1247" width="2000" xmlns="http://www.w3.org/2000/svg" xmlns:xlink="http://www.w3.org/1999/xlink"><g id="tight-bounds" transform="matrix(1,0,0,1,0.2400000000000091,-0.09999999999999432)"><svg viewBox="0 0 395.52 247.2" height="247.2" width="395.52"><g><svg></svg></g><g><svg viewBox="0 0 395.52 247.2" height="247.2" width="395.52"><mask id="10435134-f68d-4dfb-bb87-4ef69f081897"><rect width="640" height="400" fill="white"></rect><g transform="matrix(1,0,0,1,39.55199999999999,70.88195227151948)"><svg viewBox="0 0 316.416 105.43609545696104" height="105.43609545696104" width="316.416"><g><svg viewBox="0 0 316.416 105.43609545696104" height="105.43609545696104" width="316.416"><g><svg viewBox="0 0 316.416 105.43609545696104" height="105.43609545696104" width="316.416"><g><svg viewBox="0 0 316.416 105.43609545696104" height="105.43609545696104" width="316.416"><g id="SvgjsG2138"><svg viewBox="0 0 316.416 105.43609545696104" height="105.43609545696104" width="316.416" id="SvgjsSvg2137"><g><svg viewBox="0 0 316.416 64.55676891047884" height="64.55676891047884" width="316.416"><g transform="matrix(1,0,0,1,0,0)"><svg width="316.416" viewBox="-2.5 -40.5 217.1300048828125 45.099998474121094" height="64.55676891047884" data-palette-color="#ba3b0a"><path d="M23.9 0L19.4 0Q15.4-0.05 12.1-1.43 8.8-2.8 6.43-5.2 4.05-7.6 2.78-10.75 1.5-13.9 1.5-17.5L1.5-17.5Q1.5-21.1 2.78-24.25 4.05-27.4 6.43-29.8 8.8-32.2 12.1-33.58 15.4-34.95 19.4-35L19.4-35 23.9-35 23.9-30.75 19.55-30.75Q16.7-30.75 14.3-29.73 11.9-28.7 10.13-26.93 8.35-25.15 7.35-22.75 6.35-20.35 6.35-17.5L6.35-17.5Q6.35-14.7 7.35-12.28 8.35-9.85 10.13-8.08 11.9-6.3 14.3-5.3 16.7-4.3 19.55-4.25L19.55-4.25 23.9-4.25 23.9 0ZM33.95 0L29.35 0 29.35-36.5 33.95-36.5 33.95-22.2Q35.5-24.2 37.72-25.15 39.95-26.1 42.35-26.1L42.35-26.1Q45.75-26.1 48.25-24.68 50.75-23.25 52.15-20.7 53.55-18.15 53.55-14.75L53.55-14.75 53.55 0 48.95 0 48.95-14.7Q48.95-17 47.9-18.68 46.85-20.35 45.12-21.25 43.4-22.15 41.45-22.15L41.45-22.15Q39.5-22.15 37.8-21.28 36.1-20.4 35.02-18.75 33.95-17.1 33.95-14.8L33.95-14.8 33.95 0ZM65.5 0L60.85 0 60.85-25.5 65.5-25.5 65.5 0ZM63.2-29.55L63.2-29.55Q61.95-29.55 61.02-30.48 60.1-31.4 60.1-32.65L60.1-32.65Q60.1-33.9 61.02-34.83 61.95-35.75 63.2-35.75L63.2-35.75Q64.45-35.75 65.37-34.83 66.3-33.9 66.3-32.65L66.3-32.65Q66.3-31.4 65.37-30.48 64.45-29.55 63.2-29.55ZM87.44 0L81.44 0Q78.04 0 76.12-1.95 74.19-3.9 74.19-7.25L74.19-7.25 74.19-31.9 78.79-31.9 78.79-7.55Q78.79-5.9 79.72-4.93 80.64-3.95 82.29-3.95L82.29-3.95 87.44-3.95 87.44 0ZM87.54-21.55L69.79-21.55 69.79-25.5 87.54-25.5 87.54-21.55ZM126.59 0L122.09 0Q118.09-0.05 114.79-1.43 111.49-2.8 109.11-5.2 106.74-7.6 105.46-10.75 104.19-13.9 104.19-17.5L104.19-17.5Q104.19-21.1 105.46-24.25 106.74-27.4 109.11-29.8 111.49-32.2 114.79-33.58 118.09-34.95 122.09-35L122.09-35 126.59-35 126.59-30.75 122.24-30.75Q119.39-30.75 116.99-29.73 114.59-28.7 112.81-26.93 111.04-25.15 110.04-22.75 109.04-20.35 109.04-17.5L109.04-17.5Q109.04-14.7 110.04-12.28 111.04-9.85 112.81-8.08 114.59-6.3 116.99-5.3 119.39-4.3 122.24-4.25L122.24-4.25 126.59-4.25 126.59 0ZM136.64 0L132.04 0 132.04-36.5 136.64-36.5 136.64-22.2Q138.19-24.2 140.41-25.15 142.64-26.1 145.04-26.1L145.04-26.1Q148.44-26.1 150.94-24.68 153.44-23.25 154.84-20.7 156.24-18.15 156.24-14.75L156.24-14.75 156.24 0 151.64 0 151.64-14.7Q151.64-17 150.59-18.68 149.54-20.35 147.81-21.25 146.09-22.15 144.14-22.15L144.14-22.15Q142.19-22.15 140.49-21.28 138.79-20.4 137.71-18.75 136.64-17.1 136.64-14.8L136.64-14.8 136.64 0ZM174.13 0.6L174.13 0.6Q170.43 0.6 167.73-1.18 165.03-2.95 163.58-6 162.13-9.05 162.13-12.75L162.13-12.75Q162.13-16.5 163.73-19.53 165.33-22.55 168.33-24.33 171.33-26.1 175.53-26.1L175.53-26.1Q179.58-26.1 182.48-24.35 185.38-22.6 186.96-19.6 188.53-16.6 188.53-12.9L188.53-12.9 188.53 0 183.88 0 183.88-5.2 183.78-5.2Q183.03-3.75 181.76-2.43 180.48-1.1 178.58-0.25 176.68 0.6 174.13 0.6ZM175.33-3.35L175.33-3.35Q177.83-3.35 179.76-4.58 181.68-5.8 182.76-7.98 183.83-10.15 183.83-12.85L183.83-12.85Q183.83-15.5 182.81-17.6 181.78-19.7 179.88-20.93 177.98-22.15 175.43-22.15L175.43-22.15Q172.73-22.15 170.81-20.9 168.88-19.65 167.86-17.53 166.83-15.4 166.83-12.7L166.83-12.7Q166.83-10.1 167.83-7.98 168.83-5.85 170.73-4.6 172.63-3.35 175.33-3.35ZM210.53 0L204.53 0Q201.13 0 199.21-1.95 197.28-3.9 197.28-7.25L197.28-7.25 197.28-31.9 201.88-31.9 201.88-7.55Q201.88-5.9 202.81-4.93 203.73-3.95 205.38-3.95L205.38-3.95 210.53-3.95 210.53 0ZM210.63-21.55L192.88-21.55 192.88-25.5 210.63-25.5 210.63-21.55Z" opacity="1" transform="matrix(1,0,0,1,0,0)" fill="black" class="wordmark-text-0" id="SvgjsPath2136" stroke-width="7" stroke="black" stroke-linejoin="round"></path></svg></g></svg></g><g transform="matrix(1,0,0,1,3.5,77.37797685012075)"><svg viewBox="0 0 309.416 28.058118606840285" height="28.058118606840285" width="309.416"><g transform="matrix(1,0,0,1,0,0)"><svg width="309.416" viewBox="-2 -39.849998474121094 479 44.349998474121094" height="28.058118606840285" data-palette-color="#f6824a"><path d="M16.6 0L16.6 0Q14.2 0 12.75-0.43 11.3-0.85 10.68-1.28 10.05-1.7 10.05-1.7L10.05-1.7 10.05-0.45 3.05-0.45 3.05-27.85 2-32.85 3.05-35.85 10.05-35.85 10.05-27.8 9.55-22.15 10.05-21.9Q11.05-22.85 12.53-23.73 14-24.6 16.6-24.6L16.6-24.6Q21.05-24.6 23.58-21.75 26.1-18.9 26.1-12.75L26.1-12.75Q26.1-8.15 24.83-5.33 23.55-2.5 21.4-1.25 19.25 0 16.6 0ZM13.4-5.3L13.4-5.3Q15.4-5.3 16.53-6.3 17.65-7.3 18.13-8.9 18.6-10.5 18.6-12.35L18.6-12.35Q18.6-14.15 18.23-15.68 17.85-17.2 16.85-18.13 15.85-19.05 13.9-19.05L13.9-19.05 10.05-18 10.05-5.95Q10.05-5.95 11.1-5.63 12.15-5.3 13.4-5.3ZM40.35 0.5L40.35 0.5Q37.1 0.5 34.55-0.65 32-1.8 30.55-4.5 29.1-7.2 29.1-11.8L29.1-11.8Q29.1-16.25 30.65-18.95 32.2-21.65 34.75-22.88 37.3-24.1 40.35-24.1L40.35-24.1Q43.7-24.1 45.62-23.35 47.55-22.6 48.55-21.9L48.55-21.9 51.05-13.95 50.05-10.85 36.05-10.85Q36.35-8.2 37.95-6.6 39.55-5 42.85-5L42.85-5Q45.55-5 47.22-5.65 48.9-6.3 49.55-6.65L49.55-6.65 49.55-1.45Q48.05-0.65 45.72-0.08 43.4 0.5 40.35 0.5ZM36-14.05L36-14.05 43.5-15.05 42.75-18.75Q42.4-18.95 41.77-19.05 41.15-19.15 40.65-19.15L40.65-19.15Q38.4-19.15 37.2-17.57 36-16 36-14.05ZM73.99 0L66.99 0 66.99-27.4 65.94-32.4 66.99-35.4 73.99-35.4 73.99 0ZM90.14 0.5L90.14 0.5Q84.04 0.5 81.19-2.7 78.34-5.9 78.34-11.8L78.34-11.8Q78.34-17.75 81.19-20.93 84.04-24.1 90.14-24.1L90.14-24.1Q96.44-24.1 99.17-20.93 101.89-17.75 101.89-11.8L101.89-11.8Q101.89-5.9 99.17-2.7 96.44 0.5 90.14 0.5ZM90.14-4.5L90.14-4.5Q92.19-4.5 93.52-6.1 94.84-7.7 94.84-11.8L94.84-11.8Q94.84-15.9 93.52-17.5 92.19-19.1 90.14-19.1L90.14-19.1Q88.04-19.1 86.72-17.5 85.39-15.9 85.39-11.8L85.39-11.8Q85.39-7.7 86.74-6.1 88.09-4.5 90.14-4.5ZM112.89 0.5L112.89 0.5Q109.89 0.5 108.26-0.65 106.64-1.8 106.01-3.98 105.39-6.15 105.39-9.2L105.39-9.2 105.39-23.65 112.39-23.65 112.39-9Q112.39-6.95 113.16-6 113.94-5.05 115.79-5.05L115.79-5.05Q118.14-5.05 119.51-6.85 120.89-8.65 120.89-11.05L120.89-11.05 120.89-23.65 127.89-23.65 127.89-8.05 128.94-3.05 127.89 0 121.44 0 121.44-2.45 120.94-2.7Q120.29-2.05 119.06-1.3 117.84-0.55 116.26-0.03 114.69 0.5 112.89 0.5ZM141.94 0.5L141.94 0.5Q139.59 0.5 137.41-0.7 135.24-1.9 133.84-4.5 132.44-7.1 132.44-11.3L132.44-11.3Q132.44-15.95 133.94-18.75 135.44-21.55 137.76-22.83 140.09-24.1 142.44-24.1L142.44-24.1Q144.94-24.1 146.34-23.68 147.74-23.25 148.44-22.9L148.44-22.9 147.94-32.35 148.44-35.35 155.49-35.35 155.49-8 156.49-3 155.49 0.05 148.94 0.05 148.94-2.4 148.44-2.65Q148.44-2.65 147.69-1.88 146.94-1.1 145.49-0.3 144.04 0.5 141.94 0.5ZM144.69-5.05L144.69-5.05 148.44-5.75 148.44-16.05Q148.44-17.2 147.49-17.88 146.54-18.55 144.69-18.55L144.69-18.55Q142.79-18.55 141.76-17.63 140.74-16.7 140.34-15.18 139.94-13.65 139.94-11.8L139.94-11.8Q139.94-9.05 141.04-7.05 142.14-5.05 144.69-5.05ZM170.48-4L165.98 0.5 161.48-4 165.98-8.5 170.48-4ZM201.58 0L201.58 0Q199.18 0 197.73-0.43 196.28-0.85 195.65-1.28 195.03-1.7 195.03-1.7L195.03-1.7 195.03-0.45 188.03-0.45 188.03-27.85 186.98-32.85 188.03-35.85 195.03-35.85 195.03-27.8 194.53-22.15 195.03-21.9Q196.03-22.85 197.5-23.73 198.98-24.6 201.58-24.6L201.58-24.6Q206.03-24.6 208.55-21.75 211.08-18.9 211.08-12.75L211.08-12.75Q211.08-8.15 209.8-5.33 208.53-2.5 206.38-1.25 204.23 0 201.58 0ZM198.38-5.3L198.38-5.3Q200.38-5.3 201.5-6.3 202.63-7.3 203.1-8.9 203.58-10.5 203.58-12.35L203.58-12.35Q203.58-14.15 203.2-15.68 202.83-17.2 201.83-18.13 200.83-19.05 198.88-19.05L198.88-19.05 195.03-18 195.03-5.95Q195.03-5.95 196.08-5.63 197.13-5.3 198.38-5.3ZM225.33 0.5L225.33 0.5Q222.08 0.5 219.53-0.65 216.98-1.8 215.53-4.5 214.08-7.2 214.08-11.8L214.08-11.8Q214.08-16.25 215.63-18.95 217.18-21.65 219.73-22.88 222.28-24.1 225.33-24.1L225.33-24.1Q228.68-24.1 230.6-23.35 232.53-22.6 233.53-21.9L233.53-21.9 236.03-13.95 235.03-10.85 221.03-10.85Q221.33-8.2 222.93-6.6 224.53-5 227.83-5L227.83-5Q230.53-5 232.2-5.65 233.88-6.3 234.53-6.65L234.53-6.65 234.53-1.45Q233.03-0.65 230.7-0.08 228.38 0.5 225.33 0.5ZM220.98-14.05L220.98-14.05 228.48-15.05 227.73-18.75Q227.38-18.95 226.75-19.05 226.13-19.15 225.63-19.15L225.63-19.15Q223.38-19.15 222.18-17.57 220.98-16 220.98-14.05ZM258.62 0.5L258.62 0.5Q255.27 0.5 252.95-1.23 250.62-2.95 250.62-6.6L250.62-6.6Q250.62-10.45 253.07-12.48 255.52-14.5 259.62-14.5L259.62-14.5Q262.62-14.5 264.2-14 265.77-13.5 266.27-13.25L266.27-13.25 266.62-13.55Q266.62-15.05 266.37-16.2 266.12-17.35 265.22-17.98 264.32-18.6 262.42-18.6L262.42-18.6Q259.02-18.6 256.35-18.05 253.67-17.5 252.12-17.05L252.12-17.05 252.12-22.55Q253.67-23.1 256.82-23.58 259.97-24.05 263.62-24.05L263.62-24.05Q266.72-24.05 268.7-23.23 270.67-22.4 271.75-21 272.82-19.6 273.25-17.93 273.67-16.25 273.67-14.6L273.67-14.6 273.67-7.95 274.67-2.9 273.67 0.05 267.12 0.05 267.12-2.4 266.62-2.65Q266.22-2.15 265.25-1.4 264.27-0.65 262.65-0.08 261.02 0.5 258.62 0.5ZM261.37-5.05L261.37-5.05Q263.52-5.05 264.75-5.45 265.97-5.85 266.62-6.25L266.62-6.25 266.62-7.2Q266.62-8.15 265.5-9.1 264.37-10.05 261.82-10.05L261.82-10.05Q259.92-10.05 259.02-9.3 258.12-8.55 258.12-7.4L258.12-7.4Q258.12-6.2 258.97-5.63 259.82-5.05 261.37-5.05ZM294.32 0L285.32 0 278.47-17.1 277.47-23.6 284.97-23.6 289.22-7 290.22-7 294.52-23.6 303.47-23.6 307.72-7 308.72-7 313.02-23.6 320.47-23.6 319.47-17.1 312.57 0 303.57 0 299.47-17.1 298.47-17.1 294.32 0ZM333.22 0.5L333.22 0.5Q329.97 0.5 327.42-0.65 324.87-1.8 323.42-4.5 321.97-7.2 321.97-11.8L321.97-11.8Q321.97-16.25 323.52-18.95 325.07-21.65 327.62-22.88 330.17-24.1 333.22-24.1L333.22-24.1Q336.57-24.1 338.49-23.35 340.42-22.6 341.42-21.9L341.42-21.9 343.92-13.95 342.92-10.85 328.92-10.85Q329.22-8.2 330.82-6.6 332.42-5 335.72-5L335.72-5Q338.42-5 340.09-5.65 341.77-6.3 342.42-6.65L342.42-6.65 342.42-1.45Q340.92-0.65 338.59-0.08 336.27 0.5 333.22 0.5ZM328.87-14.05L328.87-14.05 336.37-15.05 335.62-18.75Q335.27-18.95 334.64-19.05 334.02-19.15 333.52-19.15L333.52-19.15Q331.27-19.15 330.07-17.57 328.87-16 328.87-14.05ZM355.71 0.5L355.71 0.5Q352.51 0.5 350.39-0.05 348.26-0.6 346.96-1.3L346.96-1.3 346.96-7.2Q348.76-6.25 351.09-5.58 353.41-4.9 355.56-4.9L355.56-4.9Q358.11-4.9 358.11-6.55L358.11-6.55Q358.11-7.45 357.39-7.9 356.66-8.35 355.39-8.72 354.11-9.1 352.46-9.65L352.46-9.65Q349.61-10.65 348.06-12.2 346.51-13.75 346.51-17.05L346.51-17.05Q346.51-20.6 348.99-22.35 351.46-24.1 355.51-24.1L355.51-24.1Q357.16-24.1 358.31-23.93 359.46-23.75 360.41-23.6L360.41-23.6 364.96-21.1 363.01-16.25 355.51-18.65Q354.56-18.65 353.99-18.28 353.41-17.9 353.41-17.25L353.41-17.25Q353.41-16.2 354.46-15.68 355.51-15.15 357.51-14.55L357.51-14.55Q361.56-13.35 363.46-11.65 365.36-9.95 365.36-6.65L365.36-6.65Q365.36-3.6 362.99-1.55 360.61 0.5 355.71 0.5ZM380.16 0.5L380.16 0.5Q374.06 0.5 371.21-2.7 368.36-5.9 368.36-11.8L368.36-11.8Q368.36-17.75 371.21-20.93 374.06-24.1 380.16-24.1L380.16-24.1Q386.46-24.1 389.19-20.93 391.91-17.75 391.91-11.8L391.91-11.8Q391.91-5.9 389.19-2.7 386.46 0.5 380.16 0.5ZM380.16-4.5L380.16-4.5Q382.21-4.5 383.54-6.1 384.86-7.7 384.86-11.8L384.86-11.8Q384.86-15.9 383.54-17.5 382.21-19.1 380.16-19.1L380.16-19.1Q378.06-19.1 376.74-17.5 375.41-15.9 375.41-11.8L375.41-11.8Q375.41-7.7 376.76-6.1 378.11-4.5 380.16-4.5ZM396.41-15.05L395.41-20.55 396.96-23.6 402.41-23.6 402.41-21.45 402.86-21.15Q403.41-21.65 404.38-22.33 405.36-23 406.76-23.55 408.16-24.1 409.91-24.1L409.91-24.1Q415.11-24.1 417.36-20.65L417.36-20.65Q418.21-21.9 420.03-23.03 421.86-24.15 425.11-24.15L425.11-24.15Q429.61-24.15 431.86-21.6 434.11-19.05 434.11-14.45L434.11-14.45 434.11-8.05 435.16-3.05 434.11 0 427.16 0 427.16-14.65Q427.16-16.55 426.13-17.57 425.11-18.6 423.21-18.6L423.21-18.6Q421.26-18.6 420.08-17.5 418.91-16.4 418.91-14.6L418.91-14.6 418.91-14.6 418.91-14.4 418.91 0 411.91 0 411.91-14.6Q411.91-16.5 411.08-17.53 410.26-18.55 408.51-18.55L408.51-18.55 403.41-17.6 403.41 0 396.41 0 396.41-15.05ZM449.71 0.5L449.71 0.5Q446.46 0.5 443.91-0.65 441.36-1.8 439.91-4.5 438.46-7.2 438.46-11.8L438.46-11.8Q438.46-16.25 440.01-18.95 441.56-21.65 444.11-22.88 446.66-24.1 449.71-24.1L449.71-24.1Q453.06-24.1 454.98-23.35 456.91-22.6 457.91-21.9L457.91-21.9 460.41-13.95 459.41-10.85 445.41-10.85Q445.71-8.2 447.31-6.6 448.91-5 452.21-5L452.21-5Q454.91-5 456.58-5.65 458.26-6.3 458.91-6.65L458.91-6.65 458.91-1.45Q457.41-0.65 455.08-0.08 452.76 0.5 449.71 0.5ZM445.36-14.05L445.36-14.05 452.86-15.05 452.11-18.75Q451.76-18.95 451.13-19.05 450.51-19.15 450.01-19.15L450.01-19.15Q447.76-19.15 446.56-17.57 445.36-16 445.36-14.05ZM473-4L468.5 0.5 464-4 468.5-8.5 473-4Z" opacity="1" transform="matrix(1,0,0,1,0,0)" fill="black" class="slogan-text-1" id="SvgjsPath2135" stroke-width="7" stroke="black" stroke-linejoin="round"></path></svg></g></svg></g></svg></g></svg></g></svg></g></svg></g></svg></g></mask><g transform="matrix(1,0,0,1,39.55199999999999,70.88195227151948)"><svg viewBox="0 0 316.416 105.43609545696104" height="105.43609545696104" width="316.416"><g><svg viewBox="0 0 316.416 105.43609545696104" height="105.43609545696104" width="316.416"><g><svg viewBox="0 0 316.416 105.43609545696104" height="105.43609545696104" width="316.416"><g><svg viewBox="0 0 316.416 105.43609545696104" height="105.43609545696104" width="316.416"><g id="textblocktransform"><svg viewBox="0 0 316.416 105.43609545696104" height="105.43609545696104" width="316.416" id="textblock"><g><svg viewBox="0 0 316.416 64.55676891047884" height="64.55676891047884" width="316.416"><g transform="matrix(1,0,0,1,0,0)"><svg width="316.416" viewBox="-2.5 -40.5 217.1300048828125 45.099998474121094" height="64.55676891047884" data-palette-color="#ba3b0a"><path d="M23.9 0L19.4 0Q15.4-0.05 12.1-1.43 8.8-2.8 6.43-5.2 4.05-7.6 2.78-10.75 1.5-13.9 1.5-17.5L1.5-17.5Q1.5-21.1 2.78-24.25 4.05-27.4 6.43-29.8 8.8-32.2 12.1-33.58 15.4-34.95 19.4-35L19.4-35 23.9-35 23.9-30.75 19.55-30.75Q16.7-30.75 14.3-29.73 11.9-28.7 10.13-26.93 8.35-25.15 7.35-22.75 6.35-20.35 6.35-17.5L6.35-17.5Q6.35-14.7 7.35-12.28 8.35-9.85 10.13-8.08 11.9-6.3 14.3-5.3 16.7-4.3 19.55-4.25L19.55-4.25 23.9-4.25 23.9 0ZM33.95 0L29.35 0 29.35-36.5 33.95-36.5 33.95-22.2Q35.5-24.2 37.72-25.15 39.95-26.1 42.35-26.1L42.35-26.1Q45.75-26.1 48.25-24.68 50.75-23.25 52.15-20.7 53.55-18.15 53.55-14.75L53.55-14.75 53.55 0 48.95 0 48.95-14.7Q48.95-17 47.9-18.68 46.85-20.35 45.12-21.25 43.4-22.15 41.45-22.15L41.45-22.15Q39.5-22.15 37.8-21.28 36.1-20.4 35.02-18.75 33.95-17.1 33.95-14.8L33.95-14.8 33.95 0ZM65.5 0L60.85 0 60.85-25.5 65.5-25.5 65.5 0ZM63.2-29.55L63.2-29.55Q61.95-29.55 61.02-30.48 60.1-31.4 60.1-32.65L60.1-32.65Q60.1-33.9 61.02-34.83 61.95-35.75 63.2-35.75L63.2-35.75Q64.45-35.75 65.37-34.83 66.3-33.9 66.3-32.65L66.3-32.65Q66.3-31.4 65.37-30.48 64.45-29.55 63.2-29.55ZM87.44 0L81.44 0Q78.04 0 76.12-1.95 74.19-3.9 74.19-7.25L74.19-7.25 74.19-31.9 78.79-31.9 78.79-7.55Q78.79-5.9 79.72-4.93 80.64-3.95 82.29-3.95L82.29-3.95 87.44-3.95 87.44 0ZM87.54-21.55L69.79-21.55 69.79-25.5 87.54-25.5 87.54-21.55ZM126.59 0L122.09 0Q118.09-0.05 114.79-1.43 111.49-2.8 109.11-5.2 106.74-7.6 105.46-10.75 104.19-13.9 104.19-17.5L104.19-17.5Q104.19-21.1 105.46-24.25 106.74-27.4 109.11-29.8 111.49-32.2 114.79-33.58 118.09-34.95 122.09-35L122.09-35 126.59-35 126.59-30.75 122.24-30.75Q119.39-30.75 116.99-29.73 114.59-28.7 112.81-26.93 111.04-25.15 110.04-22.75 109.04-20.35 109.04-17.5L109.04-17.5Q109.04-14.7 110.04-12.28 111.04-9.85 112.81-8.08 114.59-6.3 116.99-5.3 119.39-4.3 122.24-4.25L122.24-4.25 126.59-4.25 126.59 0ZM136.64 0L132.04 0 132.04-36.5 136.64-36.5 136.64-22.2Q138.19-24.2 140.41-25.15 142.64-26.1 145.04-26.1L145.04-26.1Q148.44-26.1 150.94-24.68 153.44-23.25 154.84-20.7 156.24-18.15 156.24-14.75L156.24-14.75 156.24 0 151.64 0 151.64-14.7Q151.64-17 150.59-18.68 149.54-20.35 147.81-21.25 146.09-22.15 144.14-22.15L144.14-22.15Q142.19-22.15 140.49-21.28 138.79-20.4 137.71-18.75 136.64-17.1 136.64-14.8L136.64-14.8 136.64 0ZM174.13 0.6L174.13 0.6Q170.43 0.6 167.73-1.18 165.03-2.95 163.58-6 162.13-9.05 162.13-12.75L162.13-12.75Q162.13-16.5 163.73-19.53 165.33-22.55 168.33-24.33 171.33-26.1 175.53-26.1L175.53-26.1Q179.58-26.1 182.48-24.35 185.38-22.6 186.96-19.6 188.53-16.6 188.53-12.9L188.53-12.9 188.53 0 183.88 0 183.88-5.2 183.78-5.2Q183.03-3.75 181.76-2.43 180.48-1.1 178.58-0.25 176.68 0.6 174.13 0.6ZM175.33-3.35L175.33-3.35Q177.83-3.35 179.76-4.58 181.68-5.8 182.76-7.98 183.83-10.15 183.83-12.85L183.83-12.85Q183.83-15.5 182.81-17.6 181.78-19.7 179.88-20.93 177.98-22.15 175.43-22.15L175.43-22.15Q172.73-22.15 170.81-20.9 168.88-19.65 167.86-17.53 166.83-15.4 166.83-12.7L166.83-12.7Q166.83-10.1 167.83-7.98 168.83-5.85 170.73-4.6 172.63-3.35 175.33-3.35ZM210.53 0L204.53 0Q201.13 0 199.21-1.95 197.28-3.9 197.28-7.25L197.28-7.25 197.28-31.9 201.88-31.9 201.88-7.55Q201.88-5.9 202.81-4.93 203.73-3.95 205.38-3.95L205.38-3.95 210.53-3.95 210.53 0ZM210.63-21.55L192.88-21.55 192.88-25.5 210.63-25.5 210.63-21.55Z" opacity="1" transform="matrix(1,0,0,1,0,0)" fill="#ba3b0a" class="wordmark-text-0" data-fill-palette-color="primary" id="text-0"></path></svg></g></svg></g><g transform="matrix(1,0,0,1,3.5,77.37797685012075)"><svg viewBox="0 0 309.416 28.058118606840285" height="28.058118606840285" width="309.416"><g transform="matrix(1,0,0,1,0,0)"><svg width="309.416" viewBox="-2 -39.849998474121094 479 44.349998474121094" height="28.058118606840285" data-palette-color="#f6824a"><path d="M16.6 0L16.6 0Q14.2 0 12.75-0.43 11.3-0.85 10.68-1.28 10.05-1.7 10.05-1.7L10.05-1.7 10.05-0.45 3.05-0.45 3.05-27.85 2-32.85 3.05-35.85 10.05-35.85 10.05-27.8 9.55-22.15 10.05-21.9Q11.05-22.85 12.53-23.73 14-24.6 16.6-24.6L16.6-24.6Q21.05-24.6 23.58-21.75 26.1-18.9 26.1-12.75L26.1-12.75Q26.1-8.15 24.83-5.33 23.55-2.5 21.4-1.25 19.25 0 16.6 0ZM13.4-5.3L13.4-5.3Q15.4-5.3 16.53-6.3 17.65-7.3 18.13-8.9 18.6-10.5 18.6-12.35L18.6-12.35Q18.6-14.15 18.23-15.68 17.85-17.2 16.85-18.13 15.85-19.05 13.9-19.05L13.9-19.05 10.05-18 10.05-5.95Q10.05-5.95 11.1-5.63 12.15-5.3 13.4-5.3ZM40.35 0.5L40.35 0.5Q37.1 0.5 34.55-0.65 32-1.8 30.55-4.5 29.1-7.2 29.1-11.8L29.1-11.8Q29.1-16.25 30.65-18.95 32.2-21.65 34.75-22.88 37.3-24.1 40.35-24.1L40.35-24.1Q43.7-24.1 45.62-23.35 47.55-22.6 48.55-21.9L48.55-21.9 51.05-13.95 50.05-10.85 36.05-10.85Q36.35-8.2 37.95-6.6 39.55-5 42.85-5L42.85-5Q45.55-5 47.22-5.65 48.9-6.3 49.55-6.65L49.55-6.65 49.55-1.45Q48.05-0.65 45.72-0.08 43.4 0.5 40.35 0.5ZM36-14.05L36-14.05 43.5-15.05 42.75-18.75Q42.4-18.95 41.77-19.05 41.15-19.15 40.65-19.15L40.65-19.15Q38.4-19.15 37.2-17.57 36-16 36-14.05ZM73.99 0L66.99 0 66.99-27.4 65.94-32.4 66.99-35.4 73.99-35.4 73.99 0ZM90.14 0.5L90.14 0.5Q84.04 0.5 81.19-2.7 78.34-5.9 78.34-11.8L78.34-11.8Q78.34-17.75 81.19-20.93 84.04-24.1 90.14-24.1L90.14-24.1Q96.44-24.1 99.17-20.93 101.89-17.75 101.89-11.8L101.89-11.8Q101.89-5.9 99.17-2.7 96.44 0.5 90.14 0.5ZM90.14-4.5L90.14-4.5Q92.19-4.5 93.52-6.1 94.84-7.7 94.84-11.8L94.84-11.8Q94.84-15.9 93.52-17.5 92.19-19.1 90.14-19.1L90.14-19.1Q88.04-19.1 86.72-17.5 85.39-15.9 85.39-11.8L85.39-11.8Q85.39-7.7 86.74-6.1 88.09-4.5 90.14-4.5ZM112.89 0.5L112.89 0.5Q109.89 0.5 108.26-0.65 106.64-1.8 106.01-3.98 105.39-6.15 105.39-9.2L105.39-9.2 105.39-23.65 112.39-23.65 112.39-9Q112.39-6.95 113.16-6 113.94-5.05 115.79-5.05L115.79-5.05Q118.14-5.05 119.51-6.85 120.89-8.65 120.89-11.05L120.89-11.05 120.89-23.65 127.89-23.65 127.89-8.05 128.94-3.05 127.89 0 121.44 0 121.44-2.45 120.94-2.7Q120.29-2.05 119.06-1.3 117.84-0.55 116.26-0.03 114.69 0.5 112.89 0.5ZM141.94 0.5L141.94 0.5Q139.59 0.5 137.41-0.7 135.24-1.9 133.84-4.5 132.44-7.1 132.44-11.3L132.44-11.3Q132.44-15.95 133.94-18.75 135.44-21.55 137.76-22.83 140.09-24.1 142.44-24.1L142.44-24.1Q144.94-24.1 146.34-23.68 147.74-23.25 148.44-22.9L148.44-22.9 147.94-32.35 148.44-35.35 155.49-35.35 155.49-8 156.49-3 155.49 0.05 148.94 0.05 148.94-2.4 148.44-2.65Q148.44-2.65 147.69-1.88 146.94-1.1 145.49-0.3 144.04 0.5 141.94 0.5ZM144.69-5.05L144.69-5.05 148.44-5.75 148.44-16.05Q148.44-17.2 147.49-17.88 146.54-18.55 144.69-18.55L144.69-18.55Q142.79-18.55 141.76-17.63 140.74-16.7 140.34-15.18 139.94-13.65 139.94-11.8L139.94-11.8Q139.94-9.05 141.04-7.05 142.14-5.05 144.69-5.05ZM170.48-4L165.98 0.5 161.48-4 165.98-8.5 170.48-4ZM201.58 0L201.58 0Q199.18 0 197.73-0.43 196.28-0.85 195.65-1.28 195.03-1.7 195.03-1.7L195.03-1.7 195.03-0.45 188.03-0.45 188.03-27.85 186.98-32.85 188.03-35.85 195.03-35.85 195.03-27.8 194.53-22.15 195.03-21.9Q196.03-22.85 197.5-23.73 198.98-24.6 201.58-24.6L201.58-24.6Q206.03-24.6 208.55-21.75 211.08-18.9 211.08-12.75L211.08-12.75Q211.08-8.15 209.8-5.33 208.53-2.5 206.38-1.25 204.23 0 201.58 0ZM198.38-5.3L198.38-5.3Q200.38-5.3 201.5-6.3 202.63-7.3 203.1-8.9 203.58-10.5 203.58-12.35L203.58-12.35Q203.58-14.15 203.2-15.68 202.83-17.2 201.83-18.13 200.83-19.05 198.88-19.05L198.88-19.05 195.03-18 195.03-5.95Q195.03-5.95 196.08-5.63 197.13-5.3 198.38-5.3ZM225.33 0.5L225.33 0.5Q222.08 0.5 219.53-0.65 216.98-1.8 215.53-4.5 214.08-7.2 214.08-11.8L214.08-11.8Q214.08-16.25 215.63-18.95 217.18-21.65 219.73-22.88 222.28-24.1 225.33-24.1L225.33-24.1Q228.68-24.1 230.6-23.35 232.53-22.6 233.53-21.9L233.53-21.9 236.03-13.95 235.03-10.85 221.03-10.85Q221.33-8.2 222.93-6.6 224.53-5 227.83-5L227.83-5Q230.53-5 232.2-5.65 233.88-6.3 234.53-6.65L234.53-6.65 234.53-1.45Q233.03-0.65 230.7-0.08 228.38 0.5 225.33 0.5ZM220.98-14.05L220.98-14.05 228.48-15.05 227.73-18.75Q227.38-18.95 226.75-19.05 226.13-19.15 225.63-19.15L225.63-19.15Q223.38-19.15 222.18-17.57 220.98-16 220.98-14.05ZM258.62 0.5L258.62 0.5Q255.27 0.5 252.95-1.23 250.62-2.95 250.62-6.6L250.62-6.6Q250.62-10.45 253.07-12.48 255.52-14.5 259.62-14.5L259.62-14.5Q262.62-14.5 264.2-14 265.77-13.5 266.27-13.25L266.27-13.25 266.62-13.55Q266.62-15.05 266.37-16.2 266.12-17.35 265.22-17.98 264.32-18.6 262.42-18.6L262.42-18.6Q259.02-18.6 256.35-18.05 253.67-17.5 252.12-17.05L252.12-17.05 252.12-22.55Q253.67-23.1 256.82-23.58 259.97-24.05 263.62-24.05L263.62-24.05Q266.72-24.05 268.7-23.23 270.67-22.4 271.75-21 272.82-19.6 273.25-17.93 273.67-16.25 273.67-14.6L273.67-14.6 273.67-7.95 274.67-2.9 273.67 0.05 267.12 0.05 267.12-2.4 266.62-2.65Q266.22-2.15 265.25-1.4 264.27-0.65 262.65-0.08 261.02 0.5 258.62 0.5ZM261.37-5.05L261.37-5.05Q263.52-5.05 264.75-5.45 265.97-5.85 266.62-6.25L266.62-6.25 266.62-7.2Q266.62-8.15 265.5-9.1 264.37-10.05 261.82-10.05L261.82-10.05Q259.92-10.05 259.02-9.3 258.12-8.55 258.12-7.4L258.12-7.4Q258.12-6.2 258.97-5.63 259.82-5.05 261.37-5.05ZM294.32 0L285.32 0 278.47-17.1 277.47-23.6 284.97-23.6 289.22-7 290.22-7 294.52-23.6 303.47-23.6 307.72-7 308.72-7 313.02-23.6 320.47-23.6 319.47-17.1 312.57 0 303.57 0 299.47-17.1 298.47-17.1 294.32 0ZM333.22 0.5L333.22 0.5Q329.97 0.5 327.42-0.65 324.87-1.8 323.42-4.5 321.97-7.2 321.97-11.8L321.97-11.8Q321.97-16.25 323.52-18.95 325.07-21.65 327.62-22.88 330.17-24.1 333.22-24.1L333.22-24.1Q336.57-24.1 338.49-23.35 340.42-22.6 341.42-21.9L341.42-21.9 343.92-13.95 342.92-10.85 328.92-10.85Q329.22-8.2 330.82-6.6 332.42-5 335.72-5L335.72-5Q338.42-5 340.09-5.65 341.77-6.3 342.42-6.65L342.42-6.65 342.42-1.45Q340.92-0.65 338.59-0.08 336.27 0.5 333.22 0.5ZM328.87-14.05L328.87-14.05 336.37-15.05 335.62-18.75Q335.27-18.95 334.64-19.05 334.02-19.15 333.52-19.15L333.52-19.15Q331.27-19.15 330.07-17.57 328.87-16 328.87-14.05ZM355.71 0.5L355.71 0.5Q352.51 0.5 350.39-0.05 348.26-0.6 346.96-1.3L346.96-1.3 346.96-7.2Q348.76-6.25 351.09-5.58 353.41-4.9 355.56-4.9L355.56-4.9Q358.11-4.9 358.11-6.55L358.11-6.55Q358.11-7.45 357.39-7.9 356.66-8.35 355.39-8.72 354.11-9.1 352.46-9.65L352.46-9.65Q349.61-10.65 348.06-12.2 346.51-13.75 346.51-17.05L346.51-17.05Q346.51-20.6 348.99-22.35 351.46-24.1 355.51-24.1L355.51-24.1Q357.16-24.1 358.31-23.93 359.46-23.75 360.41-23.6L360.41-23.6 364.96-21.1 363.01-16.25 355.51-18.65Q354.56-18.65 353.99-18.28 353.41-17.9 353.41-17.25L353.41-17.25Q353.41-16.2 354.46-15.68 355.51-15.15 357.51-14.55L357.51-14.55Q361.56-13.35 363.46-11.65 365.36-9.95 365.36-6.65L365.36-6.65Q365.36-3.6 362.99-1.55 360.61 0.5 355.71 0.5ZM380.16 0.5L380.16 0.5Q374.06 0.5 371.21-2.7 368.36-5.9 368.36-11.8L368.36-11.8Q368.36-17.75 371.21-20.93 374.06-24.1 380.16-24.1L380.16-24.1Q386.46-24.1 389.19-20.93 391.91-17.75 391.91-11.8L391.91-11.8Q391.91-5.9 389.19-2.7 386.46 0.5 380.16 0.5ZM380.16-4.5L380.16-4.5Q382.21-4.5 383.54-6.1 384.86-7.7 384.86-11.8L384.86-11.8Q384.86-15.9 383.54-17.5 382.21-19.1 380.16-19.1L380.16-19.1Q378.06-19.1 376.74-17.5 375.41-15.9 375.41-11.8L375.41-11.8Q375.41-7.7 376.76-6.1 378.11-4.5 380.16-4.5ZM396.41-15.05L395.41-20.55 396.96-23.6 402.41-23.6 402.41-21.45 402.86-21.15Q403.41-21.65 404.38-22.33 405.36-23 406.76-23.55 408.16-24.1 409.91-24.1L409.91-24.1Q415.11-24.1 417.36-20.65L417.36-20.65Q418.21-21.9 420.03-23.03 421.86-24.15 425.11-24.15L425.11-24.15Q429.61-24.15 431.86-21.6 434.11-19.05 434.11-14.45L434.11-14.45 434.11-8.05 435.16-3.05 434.11 0 427.16 0 427.16-14.65Q427.16-16.55 426.13-17.57 425.11-18.6 423.21-18.6L423.21-18.6Q421.26-18.6 420.08-17.5 418.91-16.4 418.91-14.6L418.91-14.6 418.91-14.6 418.91-14.4 418.91 0 411.91 0 411.91-14.6Q411.91-16.5 411.08-17.53 410.26-18.55 408.51-18.55L408.51-18.55 403.41-17.6 403.41 0 396.41 0 396.41-15.05ZM449.71 0.5L449.71 0.5Q446.46 0.5 443.91-0.65 441.36-1.8 439.91-4.5 438.46-7.2 438.46-11.8L438.46-11.8Q438.46-16.25 440.01-18.95 441.56-21.65 444.11-22.88 446.66-24.1 449.71-24.1L449.71-24.1Q453.06-24.1 454.98-23.35 456.91-22.6 457.91-21.9L457.91-21.9 460.41-13.95 459.41-10.85 445.41-10.85Q445.71-8.2 447.31-6.6 448.91-5 452.21-5L452.21-5Q454.91-5 456.58-5.65 458.26-6.3 458.91-6.65L458.91-6.65 458.91-1.45Q457.41-0.65 455.08-0.08 452.76 0.5 449.71 0.5ZM445.36-14.05L445.36-14.05 452.86-15.05 452.11-18.75Q451.76-18.95 451.13-19.05 450.51-19.15 450.01-19.15L450.01-19.15Q447.76-19.15 446.56-17.57 445.36-16 445.36-14.05ZM473-4L468.5 0.5 464-4 468.5-8.5 473-4Z" opacity="1" transform="matrix(1,0,0,1,0,0)" fill="#f6824a" class="slogan-text-1" data-fill-palette-color="secondary" id="text-1"></path></svg></g></svg></g></svg></g></svg></g></svg></g></svg></g></svg></g><g mask="url(#10435134-f68d-4dfb-bb87-4ef69f081897)"><g transform="matrix(3.8145020574002135, 0, 0, 3.8145020574002135, 30.936562598103194, 1)"><svg xmlns="http://www.w3.org/2000/svg" xmlns:xlink="http://www.w3.org/1999/xlink" version="1.1" x="0" y="0" viewBox="7.552000045776367 18.47899627685547 87.46800231933594 64.28099822998047" enable-background="new 0 0 100 100" xml:space="preserve" height="64.28099822998047" width="87.46800231933594" class="icon-none" data-fill-palette-color="accent" id="none"><path d="M31.805 41.953c0-5.497 2.443-10.57 6.546-14.639-0.238-0.004-0.474-0.013-0.712-0.013-16.615 0-30.087 9.948-30.087 22.221 0 9.36 7.837 17.36 18.926 20.634l-0.585 12.604 8.693-11.016c0 0 1.642 0 3.053 0 7.925 0 15.129-2.267 20.502-5.965C43.185 63.725 31.805 53.826 31.805 41.953z" fill="#ffd189" data-fill-palette-color="accent"></path><g fill="#ffd189" data-fill-palette-color="accent"><path d="M76.966 82.062l-11.95-15.139h-2.081c-17.693 0-32.089-10.865-32.089-24.223 0-13.355 14.396-24.221 32.089-24.221 17.691 0 32.085 10.866 32.085 24.221 0 9.637-7.348 18.172-18.857 22.078L76.966 82.062zM62.935 22.48c-15.487 0-28.089 9.071-28.089 20.221 0 11.15 12.602 20.223 28.089 20.223h4.021l5.437 6.889-0.369-7.949 1.504-0.443C84.153 58.281 91.02 50.934 91.02 42.701 91.02 31.551 78.421 22.48 62.935 22.48z" fill="#ffd189" data-fill-palette-color="accent"></path></g></svg></g></g></svg></g><defs></defs></svg><rect width="395.52" height="247.2" fill="none" stroke="none" visibility="hidden"></rect></g></svg></g></svg>